<svg width="187" height="32" viewBox="0 0 187 32" fill="none" xmlns="http://www.w3.org/2000/svg">
<rect width="187" height="32" rx="16" fill="#2FA5FF"/>
<path d="M16.1406 17.7871H17.2656C17.207 18.3262 17.0527 18.8086 16.8027 19.2344C16.5527 19.6602 16.1992 19.998 15.7422 20.248C15.2852 20.4941 14.7148 20.6172 14.0312 20.6172C13.5312 20.6172 13.0762 20.5234 12.666 20.3359C12.2598 20.1484 11.9102 19.8828 11.6172 19.5391C11.3242 19.1914 11.0977 18.7754 10.9375 18.291C10.7812 17.8027 10.7031 17.2598 10.7031 16.6621V15.8125C10.7031 15.2148 10.7812 14.6738 10.9375 14.1895C11.0977 13.7012 11.3262 13.2832 11.623 12.9355C11.9238 12.5879 12.2852 12.3203 12.707 12.1328C13.1289 11.9453 13.6035 11.8516 14.1309 11.8516C14.7754 11.8516 15.3203 11.9727 15.7656 12.2148C16.2109 12.457 16.5566 12.793 16.8027 13.2227C17.0527 13.6484 17.207 14.1426 17.2656 14.7051H16.1406C16.0859 14.3066 15.9844 13.9648 15.8359 13.6797C15.6875 13.3906 15.4766 13.168 15.2031 13.0117C14.9297 12.8555 14.5723 12.7773 14.1309 12.7773C13.752 12.7773 13.418 12.8496 13.1289 12.9941C12.8438 13.1387 12.6035 13.3438 12.4082 13.6094C12.2168 13.875 12.0723 14.1934 11.9746 14.5645C11.877 14.9355 11.8281 15.3477 11.8281 15.8008V16.6621C11.8281 17.0801 11.8711 17.4727 11.957 17.8398C12.0469 18.207 12.1816 18.5293 12.3613 18.8066C12.541 19.084 12.7695 19.3027 13.0469 19.4629C13.3242 19.6191 13.6523 19.6973 14.0312 19.6973C14.5117 19.6973 14.8945 19.6211 15.1797 19.4688C15.4648 19.3164 15.6797 19.0977 15.8242 18.8125C15.9727 18.5273 16.0781 18.1855 16.1406 17.7871ZM19.7266 15.1562V20.5H18.6426V14.1602H19.6973L19.7266 15.1562ZM21.707 14.125L21.7012 15.1328C21.6113 15.1133 21.5254 15.1016 21.4434 15.0977C21.3652 15.0898 21.2754 15.0859 21.1738 15.0859C20.9238 15.0859 20.7031 15.125 20.5117 15.2031C20.3203 15.2812 20.1582 15.3906 20.0254 15.5312C19.8926 15.6719 19.7871 15.8398 19.709 16.0352C19.6348 16.2266 19.5859 16.4375 19.5625 16.668L19.2578 16.8438C19.2578 16.4609 19.2949 16.1016 19.3691 15.7656C19.4473 15.4297 19.5664 15.1328 19.7266 14.875C19.8867 14.6133 20.0898 14.4102 20.3359 14.2656C20.5859 14.1172 20.8828 14.043 21.2266 14.043C21.3047 14.043 21.3945 14.0527 21.4961 14.0723C21.5977 14.0879 21.668 14.1055 21.707 14.125ZM25.2227 20.6172C24.7812 20.6172 24.3809 20.543 24.0215 20.3945C23.666 20.2422 23.3594 20.0293 23.1016 19.7559C22.8477 19.4824 22.6523 19.1582 22.5156 18.7832C22.3789 18.4082 22.3105 17.998 22.3105 17.5527V17.3066C22.3105 16.791 22.3867 16.332 22.5391 15.9297C22.6914 15.5234 22.8984 15.1797 23.1602 14.8984C23.4219 14.6172 23.7188 14.4043 24.0508 14.2598C24.3828 14.1152 24.7266 14.043 25.082 14.043C25.5352 14.043 25.9258 14.1211 26.2539 14.2773C26.5859 14.4336 26.8574 14.6523 27.0684 14.9336C27.2793 15.2109 27.4355 15.5391 27.5371 15.918C27.6387 16.293 27.6895 16.7031 27.6895 17.1484V17.6348H22.9551V16.75H26.6055V16.668C26.5898 16.3867 26.5312 16.1133 26.4297 15.8477C26.332 15.582 26.1758 15.3633 25.9609 15.1914C25.7461 15.0195 25.4531 14.9336 25.082 14.9336C24.8359 14.9336 24.6094 14.9863 24.4023 15.0918C24.1953 15.1934 24.0176 15.3457 23.8691 15.5488C23.7207 15.752 23.6055 16 23.5234 16.293C23.4414 16.5859 23.4004 16.9238 23.4004 17.3066V17.5527C23.4004 17.8535 23.4414 18.1367 23.5234 18.4023C23.6094 18.6641 23.7324 18.8945 23.8926 19.0938C24.0566 19.293 24.2539 19.4492 24.4844 19.5625C24.7188 19.6758 24.9844 19.7324 25.2812 19.7324C25.6641 19.7324 25.9883 19.6543 26.2539 19.498C26.5195 19.3418 26.752 19.1328 26.9512 18.8711L27.6074 19.3926C27.4707 19.5996 27.2969 19.7969 27.0859 19.9844C26.875 20.1719 26.6152 20.3242 26.3066 20.4414C26.002 20.5586 25.6406 20.6172 25.2227 20.6172ZM32.6934 19.416V16.1523C32.6934 15.9023 32.6426 15.6855 32.541 15.502C32.4434 15.3145 32.2949 15.1699 32.0957 15.0684C31.8965 14.9668 31.6504 14.916 31.3574 14.916C31.084 14.916 30.8438 14.9629 30.6367 15.0566C30.4336 15.1504 30.2734 15.2734 30.1562 15.4258C30.043 15.5781 29.9863 15.7422 29.9863 15.918H28.9023C28.9023 15.6914 28.9609 15.4668 29.0781 15.2441C29.1953 15.0215 29.3633 14.8203 29.582 14.6406C29.8047 14.457 30.0703 14.3125 30.3789 14.207C30.6914 14.0977 31.0391 14.043 31.4219 14.043C31.8828 14.043 32.2891 14.1211 32.6406 14.2773C32.9961 14.4336 33.2734 14.6699 33.4727 14.9863C33.6758 15.2988 33.7773 15.6914 33.7773 16.1641V19.1172C33.7773 19.3281 33.7949 19.5527 33.8301 19.791C33.8691 20.0293 33.9258 20.2344 34 20.4062V20.5H32.8691C32.8145 20.375 32.7715 20.209 32.7402 20.002C32.709 19.791 32.6934 19.5957 32.6934 19.416ZM32.8809 16.6562L32.8926 17.418H31.7969C31.4883 17.418 31.2129 17.4434 30.9707 17.4941C30.7285 17.541 30.5254 17.6133 30.3613 17.7109C30.1973 17.8086 30.0723 17.9316 29.9863 18.0801C29.9004 18.2246 29.8574 18.3945 29.8574 18.5898C29.8574 18.7891 29.9023 18.9707 29.9922 19.1348C30.082 19.2988 30.2168 19.4297 30.3965 19.5273C30.5801 19.6211 30.8047 19.668 31.0703 19.668C31.4023 19.668 31.6953 19.5977 31.9492 19.457C32.2031 19.3164 32.4043 19.1445 32.5527 18.9414C32.7051 18.7383 32.7871 18.541 32.7988 18.3496L33.2617 18.8711C33.2344 19.0352 33.1602 19.2168 33.0391 19.416C32.918 19.6152 32.7559 19.8066 32.5527 19.9902C32.3535 20.1699 32.1152 20.3203 31.8379 20.4414C31.5645 20.5586 31.2559 20.6172 30.9121 20.6172C30.4824 20.6172 30.1055 20.5332 29.7812 20.3652C29.4609 20.1973 29.2109 19.9727 29.0312 19.6914C28.8555 19.4062 28.7676 19.0879 28.7676 18.7363C28.7676 18.3965 28.834 18.0977 28.9668 17.8398C29.0996 17.5781 29.291 17.3613 29.541 17.1895C29.791 17.0137 30.0918 16.8809 30.4434 16.791C30.7949 16.7012 31.1875 16.6562 31.6211 16.6562H32.8809ZM38.1367 14.1602V14.9922H34.709V14.1602H38.1367ZM35.8691 12.6191H36.9531V18.9297C36.9531 19.1445 36.9863 19.3066 37.0527 19.416C37.1191 19.5254 37.2051 19.5977 37.3105 19.6328C37.416 19.668 37.5293 19.6855 37.6504 19.6855C37.7402 19.6855 37.834 19.6777 37.9316 19.6621C38.0332 19.6426 38.1094 19.627 38.1602 19.6152L38.166 20.5C38.0801 20.5273 37.9668 20.5527 37.8262 20.5762C37.6895 20.6035 37.5234 20.6172 37.3281 20.6172C37.0625 20.6172 36.8184 20.5645 36.5957 20.459C36.373 20.3535 36.1953 20.1777 36.0625 19.9316C35.9336 19.6816 35.8691 19.3457 35.8691 18.9238V12.6191ZM42.0391 20.6172C41.5977 20.6172 41.1973 20.543 40.8379 20.3945C40.4824 20.2422 40.1758 20.0293 39.918 19.7559C39.6641 19.4824 39.4688 19.1582 39.332 18.7832C39.1953 18.4082 39.127 17.998 39.127 17.5527V17.3066C39.127 16.791 39.2031 16.332 39.3555 15.9297C39.5078 15.5234 39.7148 15.1797 39.9766 14.8984C40.2383 14.6172 40.5352 14.4043 40.8672 14.2598C41.1992 14.1152 41.543 14.043 41.8984 14.043C42.3516 14.043 42.7422 14.1211 43.0703 14.2773C43.4023 14.4336 43.6738 14.6523 43.8848 14.9336C44.0957 15.2109 44.252 15.5391 44.3535 15.918C44.4551 16.293 44.5059 16.7031 44.5059 17.1484V17.6348H39.7715V16.75H43.4219V16.668C43.4062 16.3867 43.3477 16.1133 43.2461 15.8477C43.1484 15.582 42.9922 15.3633 42.7773 15.1914C42.5625 15.0195 42.2695 14.9336 41.8984 14.9336C41.6523 14.9336 41.4258 14.9863 41.2188 15.0918C41.0117 15.1934 40.834 15.3457 40.6855 15.5488C40.5371 15.752 40.4219 16 40.3398 16.293C40.2578 16.5859 40.2168 16.9238 40.2168 17.3066V17.5527C40.2168 17.8535 40.2578 18.1367 40.3398 18.4023C40.4258 18.6641 40.5488 18.8945 40.709 19.0938C40.873 19.293 41.0703 19.4492 41.3008 19.5625C41.5352 19.6758 41.8008 19.7324 42.0977 19.7324C42.4805 19.7324 42.8047 19.6543 43.0703 19.498C43.3359 19.3418 43.5684 19.1328 43.7676 18.8711L44.4238 19.3926C44.2871 19.5996 44.1133 19.7969 43.9023 19.9844C43.6914 20.1719 43.4316 20.3242 43.123 20.4414C42.8184 20.5586 42.457 20.6172 42.0391 20.6172ZM50.125 11.9688V20.5H48.9941V11.9688H50.125ZM53.1016 15.5137V20.5H52.0176V14.1602H53.043L53.1016 15.5137ZM52.8438 17.0898L52.3926 17.0723C52.3965 16.6387 52.4609 16.2383 52.5859 15.8711C52.7109 15.5 52.8867 15.1777 53.1133 14.9043C53.3398 14.6309 53.6094 14.4199 53.9219 14.2715C54.2383 14.1191 54.5879 14.043 54.9707 14.043C55.2832 14.043 55.5645 14.0859 55.8145 14.1719C56.0645 14.2539 56.2773 14.3867 56.4531 14.5703C56.6328 14.7539 56.7695 14.9922 56.8633 15.2852C56.957 15.5742 57.0039 15.9277 57.0039 16.3457V20.5H55.9141V16.334C55.9141 16.002 55.8652 15.7363 55.7676 15.5371C55.6699 15.334 55.5273 15.1875 55.3398 15.0977C55.1523 15.0039 54.9219 14.957 54.6484 14.957C54.3789 14.957 54.1328 15.0137 53.9102 15.127C53.6914 15.2402 53.502 15.3965 53.3418 15.5957C53.1855 15.7949 53.0625 16.0234 52.9727 16.2812C52.8867 16.5352 52.8438 16.8047 52.8438 17.0898ZM60.2559 19.375L61.8848 14.1602H62.5996L62.459 15.1973L60.8008 20.5H60.1035L60.2559 19.375ZM59.1602 14.1602L60.5488 19.4336L60.6484 20.5H59.916L58.0762 14.1602H59.1602ZM64.1582 19.3926L65.4824 14.1602H66.5605L64.7207 20.5H63.9941L64.1582 19.3926ZM62.7578 14.1602L64.3516 19.2871L64.5332 20.5H63.8418L62.1367 15.1855L61.9961 14.1602H62.7578ZM71.4121 19.416V16.1523C71.4121 15.9023 71.3613 15.6855 71.2598 15.502C71.1621 15.3145 71.0137 15.1699 70.8145 15.0684C70.6152 14.9668 70.3691 14.916 70.0762 14.916C69.8027 14.916 69.5625 14.9629 69.3555 15.0566C69.1523 15.1504 68.9922 15.2734 68.875 15.4258C68.7617 15.5781 68.7051 15.7422 68.7051 15.918H67.6211C67.6211 15.6914 67.6797 15.4668 67.7969 15.2441C67.9141 15.0215 68.082 14.8203 68.3008 14.6406C68.5234 14.457 68.7891 14.3125 69.0977 14.207C69.4102 14.0977 69.7578 14.043 70.1406 14.043C70.6016 14.043 71.0078 14.1211 71.3594 14.2773C71.7148 14.4336 71.9922 14.6699 72.1914 14.9863C72.3945 15.2988 72.4961 15.6914 72.4961 16.1641V19.1172C72.4961 19.3281 72.5137 19.5527 72.5488 19.791C72.5879 20.0293 72.6445 20.2344 72.7188 20.4062V20.5H71.5879C71.5332 20.375 71.4902 20.209 71.459 20.002C71.4277 19.791 71.4121 19.5957 71.4121 19.416ZM71.5996 16.6562L71.6113 17.418H70.5156C70.207 17.418 69.9316 17.4434 69.6895 17.4941C69.4473 17.541 69.2441 17.6133 69.0801 17.7109C68.916 17.8086 68.791 17.9316 68.7051 18.0801C68.6191 18.2246 68.5762 18.3945 68.5762 18.5898C68.5762 18.7891 68.6211 18.9707 68.7109 19.1348C68.8008 19.2988 68.9355 19.4297 69.1152 19.5273C69.2988 19.6211 69.5234 19.668 69.7891 19.668C70.1211 19.668 70.4141 19.5977 70.668 19.457C70.9219 19.3164 71.123 19.1445 71.2715 18.9414C71.4238 18.7383 71.5059 18.541 71.5176 18.3496L71.9805 18.8711C71.9531 19.0352 71.8789 19.2168 71.7578 19.416C71.6367 19.6152 71.4746 19.8066 71.2715 19.9902C71.0723 20.1699 70.834 20.3203 70.5566 20.4414C70.2832 20.5586 69.9746 20.6172 69.6309 20.6172C69.2012 20.6172 68.8242 20.5332 68.5 20.3652C68.1797 20.1973 67.9297 19.9727 67.75 19.6914C67.5742 19.4062 67.4863 19.0879 67.4863 18.7363C67.4863 18.3965 67.5527 18.0977 67.6855 17.8398C67.8184 17.5781 68.0098 17.3613 68.2598 17.1895C68.5098 17.0137 68.8105 16.8809 69.1621 16.791C69.5137 16.7012 69.9062 16.6562 70.3398 16.6562H71.5996ZM75.2852 15.1562V20.5H74.2012V14.1602H75.2559L75.2852 15.1562ZM77.2656 14.125L77.2598 15.1328C77.1699 15.1133 77.084 15.1016 77.002 15.0977C76.9238 15.0898 76.834 15.0859 76.7324 15.0859C76.4824 15.0859 76.2617 15.125 76.0703 15.2031C75.8789 15.2812 75.7168 15.3906 75.584 15.5312C75.4512 15.6719 75.3457 15.8398 75.2676 16.0352C75.1934 16.2266 75.1445 16.4375 75.1211 16.668L74.8164 16.8438C74.8164 16.4609 74.8535 16.1016 74.9277 15.7656C75.0059 15.4297 75.125 15.1328 75.2852 14.875C75.4453 14.6133 75.6484 14.4102 75.8945 14.2656C76.1445 14.1172 76.4414 14.043 76.7852 14.043C76.8633 14.043 76.9531 14.0527 77.0547 14.0723C77.1562 14.0879 77.2266 14.1055 77.2656 14.125ZM82.1465 19.2695V11.5H83.2363V20.5H82.2402L82.1465 19.2695ZM77.8809 17.4004V17.2773C77.8809 16.793 77.9395 16.3535 78.0566 15.959C78.1777 15.5605 78.3477 15.2188 78.5664 14.9336C78.7891 14.6484 79.0527 14.4297 79.3574 14.2773C79.666 14.1211 80.0098 14.043 80.3887 14.043C80.7871 14.043 81.1348 14.1133 81.4316 14.2539C81.7324 14.3906 81.9863 14.5918 82.1934 14.8574C82.4043 15.1191 82.5703 15.4355 82.6914 15.8066C82.8125 16.1777 82.8965 16.5977 82.9434 17.0664V17.6055C82.9004 18.0703 82.8164 18.4883 82.6914 18.8594C82.5703 19.2305 82.4043 19.5469 82.1934 19.8086C81.9863 20.0703 81.7324 20.2715 81.4316 20.4121C81.1309 20.5488 80.7793 20.6172 80.377 20.6172C80.0059 20.6172 79.666 20.5371 79.3574 20.377C79.0527 20.2168 78.7891 19.9922 78.5664 19.7031C78.3477 19.4141 78.1777 19.0742 78.0566 18.6836C77.9395 18.2891 77.8809 17.8613 77.8809 17.4004ZM78.9707 17.2773V17.4004C78.9707 17.7168 79.002 18.0137 79.0645 18.291C79.1309 18.5684 79.2324 18.8125 79.3691 19.0234C79.5059 19.2344 79.6797 19.4004 79.8906 19.5215C80.1016 19.6387 80.3535 19.6973 80.6465 19.6973C81.0059 19.6973 81.3008 19.6211 81.5312 19.4688C81.7656 19.3164 81.9531 19.1152 82.0938 18.8652C82.2344 18.6152 82.3438 18.3438 82.4219 18.0508V16.6387C82.375 16.4238 82.3066 16.2168 82.2168 16.0176C82.1309 15.8145 82.0176 15.6348 81.877 15.4785C81.7402 15.3184 81.5703 15.1914 81.3672 15.0977C81.168 15.0039 80.9316 14.957 80.6582 14.957C80.3613 14.957 80.1055 15.0195 79.8906 15.1445C79.6797 15.2656 79.5059 15.4336 79.3691 15.6484C79.2324 15.8594 79.1309 16.1055 79.0645 16.3867C79.002 16.6641 78.9707 16.9609 78.9707 17.2773ZM94.3691 16.252V19.375C94.2637 19.5312 94.0957 19.707 93.8652 19.9023C93.6348 20.0938 93.3164 20.2617 92.9102 20.4062C92.5078 20.5469 91.9883 20.6172 91.3516 20.6172C90.832 20.6172 90.3535 20.5273 89.916 20.3477C89.4824 20.1641 89.1055 19.8984 88.7852 19.5508C88.4688 19.1992 88.2227 18.7734 88.0469 18.2734C87.875 17.7695 87.7891 17.1992 87.7891 16.5625V15.9004C87.7891 15.2637 87.8633 14.6953 88.0117 14.1953C88.1641 13.6953 88.3867 13.2715 88.6797 12.9238C88.9727 12.5723 89.332 12.3066 89.7578 12.127C90.1836 11.9434 90.6719 11.8516 91.2227 11.8516C91.875 11.8516 92.4199 11.9648 92.8574 12.1914C93.2988 12.4141 93.6426 12.7227 93.8887 13.1172C94.1387 13.5117 94.2988 13.9609 94.3691 14.4648H93.2383C93.1875 14.1562 93.0859 13.875 92.9336 13.6211C92.7852 13.3672 92.5723 13.1641 92.2949 13.0117C92.0176 12.8555 91.6602 12.7773 91.2227 12.7773C90.8281 12.7773 90.4863 12.8496 90.1973 12.9941C89.9082 13.1387 89.6699 13.3457 89.4824 13.6152C89.2949 13.8848 89.1543 14.2109 89.0605 14.5938C88.9707 14.9766 88.9258 15.4082 88.9258 15.8887V16.5625C88.9258 17.0547 88.9824 17.4941 89.0957 17.8809C89.2129 18.2676 89.3789 18.5977 89.5938 18.8711C89.8086 19.1406 90.0645 19.3457 90.3613 19.4863C90.6621 19.627 90.9941 19.6973 91.3574 19.6973C91.7598 19.6973 92.0859 19.6641 92.3359 19.5977C92.5859 19.5273 92.7812 19.4453 92.9219 19.3516C93.0625 19.2539 93.1699 19.1621 93.2441 19.0762V17.166H91.2695V16.252H94.3691ZM99.8184 19.416V16.1523C99.8184 15.9023 99.7676 15.6855 99.666 15.502C99.5684 15.3145 99.4199 15.1699 99.2207 15.0684C99.0215 14.9668 98.7754 14.916 98.4824 14.916C98.209 14.916 97.9688 14.9629 97.7617 15.0566C97.5586 15.1504 97.3984 15.2734 97.2812 15.4258C97.168 15.5781 97.1113 15.7422 97.1113 15.918H96.0273C96.0273 15.6914 96.0859 15.4668 96.2031 15.2441C96.3203 15.0215 96.4883 14.8203 96.707 14.6406C96.9297 14.457 97.1953 14.3125 97.5039 14.207C97.8164 14.0977 98.1641 14.043 98.5469 14.043C99.0078 14.043 99.4141 14.1211 99.7656 14.2773C100.121 14.4336 100.398 14.6699 100.598 14.9863C100.801 15.2988 100.902 15.6914 100.902 16.1641V19.1172C100.902 19.3281 100.92 19.5527 100.955 19.791C100.994 20.0293 101.051 20.2344 101.125 20.4062V20.5H99.9941C99.9395 20.375 99.8965 20.209 99.8652 20.002C99.834 19.791 99.8184 19.5957 99.8184 19.416ZM100.006 16.6562L100.018 17.418H98.9219C98.6133 17.418 98.3379 17.4434 98.0957 17.4941C97.8535 17.541 97.6504 17.6133 97.4863 17.7109C97.3223 17.8086 97.1973 17.9316 97.1113 18.0801C97.0254 18.2246 96.9824 18.3945 96.9824 18.5898C96.9824 18.7891 97.0273 18.9707 97.1172 19.1348C97.207 19.2988 97.3418 19.4297 97.5215 19.5273C97.7051 19.6211 97.9297 19.668 98.1953 19.668C98.5273 19.668 98.8203 19.5977 99.0742 19.457C99.3281 19.3164 99.5293 19.1445 99.6777 18.9414C99.8301 18.7383 99.9121 18.541 99.9238 18.3496L100.387 18.8711C100.359 19.0352 100.285 19.2168 100.164 19.416C100.043 19.6152 99.8809 19.8066 99.6777 19.9902C99.4785 20.1699 99.2402 20.3203 98.9629 20.4414C98.6895 20.5586 98.3809 20.6172 98.0371 20.6172C97.6074 20.6172 97.2305 20.5332 96.9062 20.3652C96.5859 20.1973 96.3359 19.9727 96.1562 19.6914C95.9805 19.4062 95.8926 19.0879 95.8926 18.7363C95.8926 18.3965 95.959 18.0977 96.0918 17.8398C96.2246 17.5781 96.416 17.3613 96.666 17.1895C96.916 17.0137 97.2168 16.8809 97.5684 16.791C97.9199 16.7012 98.3125 16.6562 98.7461 16.6562H100.006ZM105.262 14.1602V14.9922H101.834V14.1602H105.262ZM102.994 12.6191H104.078V18.9297C104.078 19.1445 104.111 19.3066 104.178 19.416C104.244 19.5254 104.33 19.5977 104.436 19.6328C104.541 19.668 104.654 19.6855 104.775 19.6855C104.865 19.6855 104.959 19.6777 105.057 19.6621C105.158 19.6426 105.234 19.627 105.285 19.6152L105.291 20.5C105.205 20.5273 105.092 20.5527 104.951 20.5762C104.814 20.6035 104.648 20.6172 104.453 20.6172C104.188 20.6172 103.943 20.5645 103.721 20.459C103.498 20.3535 103.32 20.1777 103.188 19.9316C103.059 19.6816 102.994 19.3457 102.994 18.9238V12.6191ZM109.164 20.6172C108.723 20.6172 108.322 20.543 107.963 20.3945C107.607 20.2422 107.301 20.0293 107.043 19.7559C106.789 19.4824 106.594 19.1582 106.457 18.7832C106.32 18.4082 106.252 17.998 106.252 17.5527V17.3066C106.252 16.791 106.328 16.332 106.48 15.9297C106.633 15.5234 106.84 15.1797 107.102 14.8984C107.363 14.6172 107.66 14.4043 107.992 14.2598C108.324 14.1152 108.668 14.043 109.023 14.043C109.477 14.043 109.867 14.1211 110.195 14.2773C110.527 14.4336 110.799 14.6523 111.01 14.9336C111.221 15.2109 111.377 15.5391 111.479 15.918C111.58 16.293 111.631 16.7031 111.631 17.1484V17.6348H106.896V16.75H110.547V16.668C110.531 16.3867 110.473 16.1133 110.371 15.8477C110.273 15.582 110.117 15.3633 109.902 15.1914C109.688 15.0195 109.395 14.9336 109.023 14.9336C108.777 14.9336 108.551 14.9863 108.344 15.0918C108.137 15.1934 107.959 15.3457 107.811 15.5488C107.662 15.752 107.547 16 107.465 16.293C107.383 16.5859 107.342 16.9238 107.342 17.3066V17.5527C107.342 17.8535 107.383 18.1367 107.465 18.4023C107.551 18.6641 107.674 18.8945 107.834 19.0938C107.998 19.293 108.195 19.4492 108.426 19.5625C108.66 19.6758 108.926 19.7324 109.223 19.7324C109.605 19.7324 109.93 19.6543 110.195 19.498C110.461 19.3418 110.693 19.1328 110.893 18.8711L111.549 19.3926C111.412 19.5996 111.238 19.7969 111.027 19.9844C110.816 20.1719 110.557 20.3242 110.248 20.4414C109.943 20.5586 109.582 20.6172 109.164 20.6172ZM121.457 19.5801V20.5H116.939V19.5801H121.457ZM117.168 11.9688V20.5H116.037V11.9688H117.168ZM120.859 15.6367V16.5566H116.939V15.6367H120.859ZM121.398 11.9688V12.8945H116.939V11.9688H121.398ZM123.777 15.5137V20.5H122.693V14.1602H123.719L123.777 15.5137ZM123.52 17.0898L123.068 17.0723C123.072 16.6387 123.137 16.2383 123.262 15.8711C123.387 15.5 123.562 15.1777 123.789 14.9043C124.016 14.6309 124.285 14.4199 124.598 14.2715C124.914 14.1191 125.264 14.043 125.646 14.043C125.959 14.043 126.24 14.0859 126.49 14.1719C126.74 14.2539 126.953 14.3867 127.129 14.5703C127.309 14.7539 127.445 14.9922 127.539 15.2852C127.633 15.5742 127.68 15.9277 127.68 16.3457V20.5H126.59V16.334C126.59 16.002 126.541 15.7363 126.443 15.5371C126.346 15.334 126.203 15.1875 126.016 15.0977C125.828 15.0039 125.598 14.957 125.324 14.957C125.055 14.957 124.809 15.0137 124.586 15.127C124.367 15.2402 124.178 15.3965 124.018 15.5957C123.861 15.7949 123.738 16.0234 123.648 16.2812C123.562 16.5352 123.52 16.8047 123.52 17.0898ZM131.98 14.1602V14.9922H128.553V14.1602H131.98ZM129.713 12.6191H130.797V18.9297C130.797 19.1445 130.83 19.3066 130.896 19.416C130.963 19.5254 131.049 19.5977 131.154 19.6328C131.26 19.668 131.373 19.6855 131.494 19.6855C131.584 19.6855 131.678 19.6777 131.775 19.6621C131.877 19.6426 131.953 19.627 132.004 19.6152L132.01 20.5C131.924 20.5273 131.811 20.5527 131.67 20.5762C131.533 20.6035 131.367 20.6172 131.172 20.6172C130.906 20.6172 130.662 20.5645 130.439 20.459C130.217 20.3535 130.039 20.1777 129.906 19.9316C129.777 19.6816 129.713 19.3457 129.713 18.9238V12.6191ZM134.336 15.1562V20.5H133.252V14.1602H134.307L134.336 15.1562ZM136.316 14.125L136.311 15.1328C136.221 15.1133 136.135 15.1016 136.053 15.0977C135.975 15.0898 135.885 15.0859 135.783 15.0859C135.533 15.0859 135.312 15.125 135.121 15.2031C134.93 15.2812 134.768 15.3906 134.635 15.5312C134.502 15.6719 134.396 15.8398 134.318 16.0352C134.244 16.2266 134.195 16.4375 134.172 16.668L133.867 16.8438C133.867 16.4609 133.904 16.1016 133.979 15.7656C134.057 15.4297 134.176 15.1328 134.336 14.875C134.496 14.6133 134.699 14.4102 134.945 14.2656C135.195 14.1172 135.492 14.043 135.836 14.043C135.914 14.043 136.004 14.0527 136.105 14.0723C136.207 14.0879 136.277 14.1055 136.316 14.125ZM139.205 19.8438L140.969 14.1602H142.129L139.586 21.4785C139.527 21.6348 139.449 21.8027 139.352 21.9824C139.258 22.166 139.137 22.3398 138.988 22.5039C138.84 22.668 138.66 22.8008 138.449 22.9023C138.242 23.0078 137.994 23.0605 137.705 23.0605C137.619 23.0605 137.51 23.0488 137.377 23.0254C137.244 23.002 137.15 22.9824 137.096 22.9668L137.09 22.0879C137.121 22.0918 137.17 22.0957 137.236 22.0996C137.307 22.1074 137.355 22.1113 137.383 22.1113C137.629 22.1113 137.838 22.0781 138.01 22.0117C138.182 21.9492 138.326 21.8418 138.443 21.6895C138.564 21.541 138.668 21.3359 138.754 21.0742L139.205 19.8438ZM137.91 14.1602L139.557 19.082L139.838 20.2246L139.059 20.623L136.727 14.1602H137.91Z" fill="white"/>
<path d="M157 16L173 16M173 16L167 22M173 16L167 10" stroke="white" stroke-width="1.5" stroke-linecap="round" stroke-linejoin="round"/>
</svg>
