<svg width="196" height="32" viewBox="0 0 196 32" fill="none" xmlns="http://www.w3.org/2000/svg">
<rect width="196" height="32" rx="16" fill="#B5B9BE"/>
<path d="M16.1406 17.7871H17.2656C17.207 18.3262 17.0527 18.8086 16.8027 19.2344C16.5527 19.6602 16.1992 19.998 15.7422 20.248C15.2852 20.4941 14.7148 20.6172 14.0312 20.6172C13.5312 20.6172 13.0762 20.5234 12.666 20.3359C12.2598 20.1484 11.9102 19.8828 11.6172 19.5391C11.3242 19.1914 11.0977 18.7754 10.9375 18.291C10.7812 17.8027 10.7031 17.2598 10.7031 16.6621V15.8125C10.7031 15.2148 10.7812 14.6738 10.9375 14.1895C11.0977 13.7012 11.3262 13.2832 11.623 12.9355C11.9238 12.5879 12.2852 12.3203 12.707 12.1328C13.1289 11.9453 13.6035 11.8516 14.1309 11.8516C14.7754 11.8516 15.3203 11.9727 15.7656 12.2148C16.2109 12.457 16.5566 12.793 16.8027 13.2227C17.0527 13.6484 17.207 14.1426 17.2656 14.7051H16.1406C16.0859 14.3066 15.9844 13.9648 15.8359 13.6797C15.6875 13.3906 15.4766 13.168 15.2031 13.0117C14.9297 12.8555 14.5723 12.7773 14.1309 12.7773C13.752 12.7773 13.418 12.8496 13.1289 12.9941C12.8438 13.1387 12.6035 13.3438 12.4082 13.6094C12.2168 13.875 12.0723 14.1934 11.9746 14.5645C11.877 14.9355 11.8281 15.3477 11.8281 15.8008V16.6621C11.8281 17.0801 11.8711 17.4727 11.957 17.8398C12.0469 18.207 12.1816 18.5293 12.3613 18.8066C12.541 19.084 12.7695 19.3027 13.0469 19.4629C13.3242 19.6191 13.6523 19.6973 14.0312 19.6973C14.5117 19.6973 14.8945 19.6211 15.1797 19.4688C15.4648 19.3164 15.6797 19.0977 15.8242 18.8125C15.9727 18.5273 16.0781 18.1855 16.1406 17.7871ZM19.7266 15.1562V20.5H18.6426V14.1602H19.6973L19.7266 15.1562ZM21.707 14.125L21.7012 15.1328C21.6113 15.1133 21.5254 15.1016 21.4434 15.0977C21.3652 15.0898 21.2754 15.0859 21.1738 15.0859C20.9238 15.0859 20.7031 15.125 20.5117 15.2031C20.3203 15.2812 20.1582 15.3906 20.0254 15.5312C19.8926 15.6719 19.7871 15.8398 19.709 16.0352C19.6348 16.2266 19.5859 16.4375 19.5625 16.668L19.2578 16.8438C19.2578 16.4609 19.2949 16.1016 19.3691 15.7656C19.4473 15.4297 19.5664 15.1328 19.7266 14.875C19.8867 14.6133 20.0898 14.4102 20.3359 14.2656C20.5859 14.1172 20.8828 14.043 21.2266 14.043C21.3047 14.043 21.3945 14.0527 21.4961 14.0723C21.5977 14.0879 21.668 14.1055 21.707 14.125ZM25.2227 20.6172C24.7812 20.6172 24.3809 20.543 24.0215 20.3945C23.666 20.2422 23.3594 20.0293 23.1016 19.7559C22.8477 19.4824 22.6523 19.1582 22.5156 18.7832C22.3789 18.4082 22.3105 17.998 22.3105 17.5527V17.3066C22.3105 16.791 22.3867 16.332 22.5391 15.9297C22.6914 15.5234 22.8984 15.1797 23.1602 14.8984C23.4219 14.6172 23.7188 14.4043 24.0508 14.2598C24.3828 14.1152 24.7266 14.043 25.082 14.043C25.5352 14.043 25.9258 14.1211 26.2539 14.2773C26.5859 14.4336 26.8574 14.6523 27.0684 14.9336C27.2793 15.2109 27.4355 15.5391 27.5371 15.918C27.6387 16.293 27.6895 16.7031 27.6895 17.1484V17.6348H22.9551V16.75H26.6055V16.668C26.5898 16.3867 26.5312 16.1133 26.4297 15.8477C26.332 15.582 26.1758 15.3633 25.9609 15.1914C25.7461 15.0195 25.4531 14.9336 25.082 14.9336C24.8359 14.9336 24.6094 14.9863 24.4023 15.0918C24.1953 15.1934 24.0176 15.3457 23.8691 15.5488C23.7207 15.752 23.6055 16 23.5234 16.293C23.4414 16.5859 23.4004 16.9238 23.4004 17.3066V17.5527C23.4004 17.8535 23.4414 18.1367 23.5234 18.4023C23.6094 18.6641 23.7324 18.8945 23.8926 19.0938C24.0566 19.293 24.2539 19.4492 24.4844 19.5625C24.7188 19.6758 24.9844 19.7324 25.2812 19.7324C25.6641 19.7324 25.9883 19.6543 26.2539 19.498C26.5195 19.3418 26.752 19.1328 26.9512 18.8711L27.6074 19.3926C27.4707 19.5996 27.2969 19.7969 27.0859 19.9844C26.875 20.1719 26.6152 20.3242 26.3066 20.4414C26.002 20.5586 25.6406 20.6172 25.2227 20.6172ZM32.6934 19.416V16.1523C32.6934 15.9023 32.6426 15.6855 32.541 15.502C32.4434 15.3145 32.2949 15.1699 32.0957 15.0684C31.8965 14.9668 31.6504 14.916 31.3574 14.916C31.084 14.916 30.8438 14.9629 30.6367 15.0566C30.4336 15.1504 30.2734 15.2734 30.1562 15.4258C30.043 15.5781 29.9863 15.7422 29.9863 15.918H28.9023C28.9023 15.6914 28.9609 15.4668 29.0781 15.2441C29.1953 15.0215 29.3633 14.8203 29.582 14.6406C29.8047 14.457 30.0703 14.3125 30.3789 14.207C30.6914 14.0977 31.0391 14.043 31.4219 14.043C31.8828 14.043 32.2891 14.1211 32.6406 14.2773C32.9961 14.4336 33.2734 14.6699 33.4727 14.9863C33.6758 15.2988 33.7773 15.6914 33.7773 16.1641V19.1172C33.7773 19.3281 33.7949 19.5527 33.8301 19.791C33.8691 20.0293 33.9258 20.2344 34 20.4062V20.5H32.8691C32.8145 20.375 32.7715 20.209 32.7402 20.002C32.709 19.791 32.6934 19.5957 32.6934 19.416ZM32.8809 16.6562L32.8926 17.418H31.7969C31.4883 17.418 31.2129 17.4434 30.9707 17.4941C30.7285 17.541 30.5254 17.6133 30.3613 17.7109C30.1973 17.8086 30.0723 17.9316 29.9863 18.0801C29.9004 18.2246 29.8574 18.3945 29.8574 18.5898C29.8574 18.7891 29.9023 18.9707 29.9922 19.1348C30.082 19.2988 30.2168 19.4297 30.3965 19.5273C30.5801 19.6211 30.8047 19.668 31.0703 19.668C31.4023 19.668 31.6953 19.5977 31.9492 19.457C32.2031 19.3164 32.4043 19.1445 32.5527 18.9414C32.7051 18.7383 32.7871 18.541 32.7988 18.3496L33.2617 18.8711C33.2344 19.0352 33.1602 19.2168 33.0391 19.416C32.918 19.6152 32.7559 19.8066 32.5527 19.9902C32.3535 20.1699 32.1152 20.3203 31.8379 20.4414C31.5645 20.5586 31.2559 20.6172 30.9121 20.6172C30.4824 20.6172 30.1055 20.5332 29.7812 20.3652C29.4609 20.1973 29.2109 19.9727 29.0312 19.6914C28.8555 19.4062 28.7676 19.0879 28.7676 18.7363C28.7676 18.3965 28.834 18.0977 28.9668 17.8398C29.0996 17.5781 29.291 17.3613 29.541 17.1895C29.791 17.0137 30.0918 16.8809 30.4434 16.791C30.7949 16.7012 31.1875 16.6562 31.6211 16.6562H32.8809ZM38.1367 14.1602V14.9922H34.709V14.1602H38.1367ZM35.8691 12.6191H36.9531V18.9297C36.9531 19.1445 36.9863 19.3066 37.0527 19.416C37.1191 19.5254 37.2051 19.5977 37.3105 19.6328C37.416 19.668 37.5293 19.6855 37.6504 19.6855C37.7402 19.6855 37.834 19.6777 37.9316 19.6621C38.0332 19.6426 38.1094 19.627 38.1602 19.6152L38.166 20.5C38.0801 20.5273 37.9668 20.5527 37.8262 20.5762C37.6895 20.6035 37.5234 20.6172 37.3281 20.6172C37.0625 20.6172 36.8184 20.5645 36.5957 20.459C36.373 20.3535 36.1953 20.1777 36.0625 19.9316C35.9336 19.6816 35.8691 19.3457 35.8691 18.9238V12.6191ZM42.0391 20.6172C41.5977 20.6172 41.1973 20.543 40.8379 20.3945C40.4824 20.2422 40.1758 20.0293 39.918 19.7559C39.6641 19.4824 39.4688 19.1582 39.332 18.7832C39.1953 18.4082 39.127 17.998 39.127 17.5527V17.3066C39.127 16.791 39.2031 16.332 39.3555 15.9297C39.5078 15.5234 39.7148 15.1797 39.9766 14.8984C40.2383 14.6172 40.5352 14.4043 40.8672 14.2598C41.1992 14.1152 41.543 14.043 41.8984 14.043C42.3516 14.043 42.7422 14.1211 43.0703 14.2773C43.4023 14.4336 43.6738 14.6523 43.8848 14.9336C44.0957 15.2109 44.252 15.5391 44.3535 15.918C44.4551 16.293 44.5059 16.7031 44.5059 17.1484V17.6348H39.7715V16.75H43.4219V16.668C43.4062 16.3867 43.3477 16.1133 43.2461 15.8477C43.1484 15.582 42.9922 15.3633 42.7773 15.1914C42.5625 15.0195 42.2695 14.9336 41.8984 14.9336C41.6523 14.9336 41.4258 14.9863 41.2188 15.0918C41.0117 15.1934 40.834 15.3457 40.6855 15.5488C40.5371 15.752 40.4219 16 40.3398 16.293C40.2578 16.5859 40.2168 16.9238 40.2168 17.3066V17.5527C40.2168 17.8535 40.2578 18.1367 40.3398 18.4023C40.4258 18.6641 40.5488 18.8945 40.709 19.0938C40.873 19.293 41.0703 19.4492 41.3008 19.5625C41.5352 19.6758 41.8008 19.7324 42.0977 19.7324C42.4805 19.7324 42.8047 19.6543 43.0703 19.498C43.3359 19.3418 43.5684 19.1328 43.7676 18.8711L44.4238 19.3926C44.2871 19.5996 44.1133 19.7969 43.9023 19.9844C43.6914 20.1719 43.4316 20.3242 43.123 20.4414C42.8184 20.5586 42.457 20.6172 42.0391 20.6172ZM55.4805 15.9648V16.5039C55.4805 17.1445 55.4004 17.7188 55.2402 18.2266C55.0801 18.7344 54.8496 19.166 54.5488 19.5215C54.248 19.877 53.8867 20.1484 53.4648 20.3359C53.0469 20.5234 52.5781 20.6172 52.0586 20.6172C51.5547 20.6172 51.0918 20.5234 50.6699 20.3359C50.252 20.1484 49.8887 19.877 49.5801 19.5215C49.2754 19.166 49.0391 18.7344 48.8711 18.2266C48.7031 17.7188 48.6191 17.1445 48.6191 16.5039V15.9648C48.6191 15.3242 48.7012 14.752 48.8652 14.248C49.0332 13.7402 49.2695 13.3086 49.5742 12.9531C49.8789 12.5938 50.2402 12.3203 50.6582 12.1328C51.0801 11.9453 51.543 11.8516 52.0469 11.8516C52.5664 11.8516 53.0352 11.9453 53.4531 12.1328C53.875 12.3203 54.2363 12.5938 54.5371 12.9531C54.8418 13.3086 55.0742 13.7402 55.2344 14.248C55.3984 14.752 55.4805 15.3242 55.4805 15.9648ZM54.3613 16.5039V15.9531C54.3613 15.4453 54.3086 14.9961 54.2031 14.6055C54.1016 14.2148 53.9512 13.8867 53.752 13.6211C53.5527 13.3555 53.3086 13.1543 53.0195 13.0176C52.7344 12.8809 52.4102 12.8125 52.0469 12.8125C51.6953 12.8125 51.377 12.8809 51.0918 13.0176C50.8105 13.1543 50.5684 13.3555 50.3652 13.6211C50.166 13.8867 50.0117 14.2148 49.9023 14.6055C49.793 14.9961 49.7383 15.4453 49.7383 15.9531V16.5039C49.7383 17.0156 49.793 17.4688 49.9023 17.8633C50.0117 18.2539 50.168 18.584 50.3711 18.8535C50.5781 19.1191 50.8223 19.3203 51.1035 19.457C51.3887 19.5938 51.707 19.6621 52.0586 19.6621C52.4258 19.6621 52.752 19.5938 53.0371 19.457C53.3223 19.3203 53.5625 19.1191 53.7578 18.8535C53.957 18.584 54.1074 18.2539 54.209 17.8633C54.3105 17.4688 54.3613 17.0156 54.3613 16.5039ZM60.8887 19.0352V14.1602H61.9785V20.5H60.9414L60.8887 19.0352ZM61.0938 17.6992L61.5449 17.6875C61.5449 18.1094 61.5 18.5 61.4102 18.8594C61.3242 19.2148 61.1836 19.5234 60.9883 19.7852C60.793 20.0469 60.5371 20.252 60.2207 20.4004C59.9043 20.5449 59.5195 20.6172 59.0664 20.6172C58.7578 20.6172 58.4746 20.5723 58.2168 20.4824C57.9629 20.3926 57.7441 20.2539 57.5605 20.0664C57.377 19.8789 57.2344 19.6348 57.1328 19.334C57.0352 19.0332 56.9863 18.6719 56.9863 18.25V14.1602H58.0703V18.2617C58.0703 18.5469 58.1016 18.7832 58.1641 18.9707C58.2305 19.1543 58.3184 19.3008 58.4277 19.4102C58.541 19.5156 58.666 19.5898 58.8027 19.6328C58.9434 19.6758 59.0879 19.6973 59.2363 19.6973C59.6973 19.6973 60.0625 19.6094 60.332 19.4336C60.6016 19.2539 60.7949 19.0137 60.9121 18.7129C61.0332 18.4082 61.0938 18.0703 61.0938 17.6992ZM66.2852 14.1602V14.9922H62.8574V14.1602H66.2852ZM64.0176 12.6191H65.1016V18.9297C65.1016 19.1445 65.1348 19.3066 65.2012 19.416C65.2676 19.5254 65.3535 19.5977 65.459 19.6328C65.5645 19.668 65.6777 19.6855 65.7988 19.6855C65.8887 19.6855 65.9824 19.6777 66.0801 19.6621C66.1816 19.6426 66.2578 19.627 66.3086 19.6152L66.3145 20.5C66.2285 20.5273 66.1152 20.5527 65.9746 20.5762C65.8379 20.6035 65.6719 20.6172 65.4766 20.6172C65.2109 20.6172 64.9668 20.5645 64.7441 20.459C64.5215 20.3535 64.3438 20.1777 64.2109 19.9316C64.082 19.6816 64.0176 19.3457 64.0176 18.9238V12.6191ZM69.1621 19.375L70.791 14.1602H71.5059L71.3652 15.1973L69.707 20.5H69.0098L69.1621 19.375ZM68.0664 14.1602L69.4551 19.4336L69.5547 20.5H68.8223L66.9824 14.1602H68.0664ZM73.0645 19.3926L74.3887 14.1602H75.4668L73.627 20.5H72.9004L73.0645 19.3926ZM71.6641 14.1602L73.2578 19.2871L73.4395 20.5H72.748L71.043 15.1855L70.9023 14.1602H71.6641ZM80.3184 19.416V16.1523C80.3184 15.9023 80.2676 15.6855 80.166 15.502C80.0684 15.3145 79.9199 15.1699 79.7207 15.0684C79.5215 14.9668 79.2754 14.916 78.9824 14.916C78.709 14.916 78.4688 14.9629 78.2617 15.0566C78.0586 15.1504 77.8984 15.2734 77.7812 15.4258C77.668 15.5781 77.6113 15.7422 77.6113 15.918H76.5273C76.5273 15.6914 76.5859 15.4668 76.7031 15.2441C76.8203 15.0215 76.9883 14.8203 77.207 14.6406C77.4297 14.457 77.6953 14.3125 78.0039 14.207C78.3164 14.0977 78.6641 14.043 79.0469 14.043C79.5078 14.043 79.9141 14.1211 80.2656 14.2773C80.6211 14.4336 80.8984 14.6699 81.0977 14.9863C81.3008 15.2988 81.4023 15.6914 81.4023 16.1641V19.1172C81.4023 19.3281 81.4199 19.5527 81.4551 19.791C81.4941 20.0293 81.5508 20.2344 81.625 20.4062V20.5H80.4941C80.4395 20.375 80.3965 20.209 80.3652 20.002C80.334 19.791 80.3184 19.5957 80.3184 19.416ZM80.5059 16.6562L80.5176 17.418H79.4219C79.1133 17.418 78.8379 17.4434 78.5957 17.4941C78.3535 17.541 78.1504 17.6133 77.9863 17.7109C77.8223 17.8086 77.6973 17.9316 77.6113 18.0801C77.5254 18.2246 77.4824 18.3945 77.4824 18.5898C77.4824 18.7891 77.5273 18.9707 77.6172 19.1348C77.707 19.2988 77.8418 19.4297 78.0215 19.5273C78.2051 19.6211 78.4297 19.668 78.6953 19.668C79.0273 19.668 79.3203 19.5977 79.5742 19.457C79.8281 19.3164 80.0293 19.1445 80.1777 18.9414C80.3301 18.7383 80.4121 18.541 80.4238 18.3496L80.8867 18.8711C80.8594 19.0352 80.7852 19.2168 80.6641 19.416C80.543 19.6152 80.3809 19.8066 80.1777 19.9902C79.9785 20.1699 79.7402 20.3203 79.4629 20.4414C79.1895 20.5586 78.8809 20.6172 78.5371 20.6172C78.1074 20.6172 77.7305 20.5332 77.4062 20.3652C77.0859 20.1973 76.8359 19.9727 76.6562 19.6914C76.4805 19.4062 76.3926 19.0879 76.3926 18.7363C76.3926 18.3965 76.459 18.0977 76.5918 17.8398C76.7246 17.5781 76.916 17.3613 77.166 17.1895C77.416 17.0137 77.7168 16.8809 78.0684 16.791C78.4199 16.7012 78.8125 16.6562 79.2461 16.6562H80.5059ZM84.1914 15.1562V20.5H83.1074V14.1602H84.1621L84.1914 15.1562ZM86.1719 14.125L86.166 15.1328C86.0762 15.1133 85.9902 15.1016 85.9082 15.0977C85.8301 15.0898 85.7402 15.0859 85.6387 15.0859C85.3887 15.0859 85.168 15.125 84.9766 15.2031C84.7852 15.2812 84.623 15.3906 84.4902 15.5312C84.3574 15.6719 84.252 15.8398 84.1738 16.0352C84.0996 16.2266 84.0508 16.4375 84.0273 16.668L83.7227 16.8438C83.7227 16.4609 83.7598 16.1016 83.834 15.7656C83.9121 15.4297 84.0312 15.1328 84.1914 14.875C84.3516 14.6133 84.5547 14.4102 84.8008 14.2656C85.0508 14.1172 85.3477 14.043 85.6914 14.043C85.7695 14.043 85.8594 14.0527 85.9609 14.0723C86.0625 14.0879 86.1328 14.1055 86.1719 14.125ZM91.0527 19.2695V11.5H92.1426V20.5H91.1465L91.0527 19.2695ZM86.7871 17.4004V17.2773C86.7871 16.793 86.8457 16.3535 86.9629 15.959C87.084 15.5605 87.2539 15.2188 87.4727 14.9336C87.6953 14.6484 87.959 14.4297 88.2637 14.2773C88.5723 14.1211 88.916 14.043 89.2949 14.043C89.6934 14.043 90.041 14.1133 90.3379 14.2539C90.6387 14.3906 90.8926 14.5918 91.0996 14.8574C91.3105 15.1191 91.4766 15.4355 91.5977 15.8066C91.7188 16.1777 91.8027 16.5977 91.8496 17.0664V17.6055C91.8066 18.0703 91.7227 18.4883 91.5977 18.8594C91.4766 19.2305 91.3105 19.5469 91.0996 19.8086C90.8926 20.0703 90.6387 20.2715 90.3379 20.4121C90.0371 20.5488 89.6855 20.6172 89.2832 20.6172C88.9121 20.6172 88.5723 20.5371 88.2637 20.377C87.959 20.2168 87.6953 19.9922 87.4727 19.7031C87.2539 19.4141 87.084 19.0742 86.9629 18.6836C86.8457 18.2891 86.7871 17.8613 86.7871 17.4004ZM87.877 17.2773V17.4004C87.877 17.7168 87.9082 18.0137 87.9707 18.291C88.0371 18.5684 88.1387 18.8125 88.2754 19.0234C88.4121 19.2344 88.5859 19.4004 88.7969 19.5215C89.0078 19.6387 89.2598 19.6973 89.5527 19.6973C89.9121 19.6973 90.207 19.6211 90.4375 19.4688C90.6719 19.3164 90.8594 19.1152 91 18.8652C91.1406 18.6152 91.25 18.3438 91.3281 18.0508V16.6387C91.2812 16.4238 91.2129 16.2168 91.123 16.0176C91.0371 15.8145 90.9238 15.6348 90.7832 15.4785C90.6465 15.3184 90.4766 15.1914 90.2734 15.0977C90.0742 15.0039 89.8379 14.957 89.5645 14.957C89.2676 14.957 89.0117 15.0195 88.7969 15.1445C88.5859 15.2656 88.4121 15.4336 88.2754 15.6484C88.1387 15.8594 88.0371 16.1055 87.9707 16.3867C87.9082 16.6641 87.877 16.9609 87.877 17.2773ZM103.275 16.252V19.375C103.17 19.5312 103.002 19.707 102.771 19.9023C102.541 20.0938 102.223 20.2617 101.816 20.4062C101.414 20.5469 100.895 20.6172 100.258 20.6172C99.7383 20.6172 99.2598 20.5273 98.8223 20.3477C98.3887 20.1641 98.0117 19.8984 97.6914 19.5508C97.375 19.1992 97.1289 18.7734 96.9531 18.2734C96.7812 17.7695 96.6953 17.1992 96.6953 16.5625V15.9004C96.6953 15.2637 96.7695 14.6953 96.918 14.1953C97.0703 13.6953 97.293 13.2715 97.5859 12.9238C97.8789 12.5723 98.2383 12.3066 98.6641 12.127C99.0898 11.9434 99.5781 11.8516 100.129 11.8516C100.781 11.8516 101.326 11.9648 101.764 12.1914C102.205 12.4141 102.549 12.7227 102.795 13.1172C103.045 13.5117 103.205 13.9609 103.275 14.4648H102.145C102.094 14.1562 101.992 13.875 101.84 13.6211C101.691 13.3672 101.479 13.1641 101.201 13.0117C100.924 12.8555 100.566 12.7773 100.129 12.7773C99.7344 12.7773 99.3926 12.8496 99.1035 12.9941C98.8145 13.1387 98.5762 13.3457 98.3887 13.6152C98.2012 13.8848 98.0605 14.2109 97.9668 14.5938C97.877 14.9766 97.832 15.4082 97.832 15.8887V16.5625C97.832 17.0547 97.8887 17.4941 98.002 17.8809C98.1191 18.2676 98.2852 18.5977 98.5 18.8711C98.7148 19.1406 98.9707 19.3457 99.2676 19.4863C99.5684 19.627 99.9004 19.6973 100.264 19.6973C100.666 19.6973 100.992 19.6641 101.242 19.5977C101.492 19.5273 101.688 19.4453 101.828 19.3516C101.969 19.2539 102.076 19.1621 102.15 19.0762V17.166H100.176V16.252H103.275ZM108.725 19.416V16.1523C108.725 15.9023 108.674 15.6855 108.572 15.502C108.475 15.3145 108.326 15.1699 108.127 15.0684C107.928 14.9668 107.682 14.916 107.389 14.916C107.115 14.916 106.875 14.9629 106.668 15.0566C106.465 15.1504 106.305 15.2734 106.188 15.4258C106.074 15.5781 106.018 15.7422 106.018 15.918H104.934C104.934 15.6914 104.992 15.4668 105.109 15.2441C105.227 15.0215 105.395 14.8203 105.613 14.6406C105.836 14.457 106.102 14.3125 106.41 14.207C106.723 14.0977 107.07 14.043 107.453 14.043C107.914 14.043 108.32 14.1211 108.672 14.2773C109.027 14.4336 109.305 14.6699 109.504 14.9863C109.707 15.2988 109.809 15.6914 109.809 16.1641V19.1172C109.809 19.3281 109.826 19.5527 109.861 19.791C109.9 20.0293 109.957 20.2344 110.031 20.4062V20.5H108.9C108.846 20.375 108.803 20.209 108.771 20.002C108.74 19.791 108.725 19.5957 108.725 19.416ZM108.912 16.6562L108.924 17.418H107.828C107.52 17.418 107.244 17.4434 107.002 17.4941C106.76 17.541 106.557 17.6133 106.393 17.7109C106.229 17.8086 106.104 17.9316 106.018 18.0801C105.932 18.2246 105.889 18.3945 105.889 18.5898C105.889 18.7891 105.934 18.9707 106.023 19.1348C106.113 19.2988 106.248 19.4297 106.428 19.5273C106.611 19.6211 106.836 19.668 107.102 19.668C107.434 19.668 107.727 19.5977 107.98 19.457C108.234 19.3164 108.436 19.1445 108.584 18.9414C108.736 18.7383 108.818 18.541 108.83 18.3496L109.293 18.8711C109.266 19.0352 109.191 19.2168 109.07 19.416C108.949 19.6152 108.787 19.8066 108.584 19.9902C108.385 20.1699 108.146 20.3203 107.869 20.4414C107.596 20.5586 107.287 20.6172 106.943 20.6172C106.514 20.6172 106.137 20.5332 105.812 20.3652C105.492 20.1973 105.242 19.9727 105.062 19.6914C104.887 19.4062 104.799 19.0879 104.799 18.7363C104.799 18.3965 104.865 18.0977 104.998 17.8398C105.131 17.5781 105.322 17.3613 105.572 17.1895C105.822 17.0137 106.123 16.8809 106.475 16.791C106.826 16.7012 107.219 16.6562 107.652 16.6562H108.912ZM114.168 14.1602V14.9922H110.74V14.1602H114.168ZM111.9 12.6191H112.984V18.9297C112.984 19.1445 113.018 19.3066 113.084 19.416C113.15 19.5254 113.236 19.5977 113.342 19.6328C113.447 19.668 113.561 19.6855 113.682 19.6855C113.771 19.6855 113.865 19.6777 113.963 19.6621C114.064 19.6426 114.141 19.627 114.191 19.6152L114.197 20.5C114.111 20.5273 113.998 20.5527 113.857 20.5762C113.721 20.6035 113.555 20.6172 113.359 20.6172C113.094 20.6172 112.85 20.5645 112.627 20.459C112.404 20.3535 112.227 20.1777 112.094 19.9316C111.965 19.6816 111.9 19.3457 111.9 18.9238V12.6191ZM118.07 20.6172C117.629 20.6172 117.229 20.543 116.869 20.3945C116.514 20.2422 116.207 20.0293 115.949 19.7559C115.695 19.4824 115.5 19.1582 115.363 18.7832C115.227 18.4082 115.158 17.998 115.158 17.5527V17.3066C115.158 16.791 115.234 16.332 115.387 15.9297C115.539 15.5234 115.746 15.1797 116.008 14.8984C116.27 14.6172 116.566 14.4043 116.898 14.2598C117.23 14.1152 117.574 14.043 117.93 14.043C118.383 14.043 118.773 14.1211 119.102 14.2773C119.434 14.4336 119.705 14.6523 119.916 14.9336C120.127 15.2109 120.283 15.5391 120.385 15.918C120.486 16.293 120.537 16.7031 120.537 17.1484V17.6348H115.803V16.75H119.453V16.668C119.438 16.3867 119.379 16.1133 119.277 15.8477C119.18 15.582 119.023 15.3633 118.809 15.1914C118.594 15.0195 118.301 14.9336 117.93 14.9336C117.684 14.9336 117.457 14.9863 117.25 15.0918C117.043 15.1934 116.865 15.3457 116.717 15.5488C116.568 15.752 116.453 16 116.371 16.293C116.289 16.5859 116.248 16.9238 116.248 17.3066V17.5527C116.248 17.8535 116.289 18.1367 116.371 18.4023C116.457 18.6641 116.58 18.8945 116.74 19.0938C116.904 19.293 117.102 19.4492 117.332 19.5625C117.566 19.6758 117.832 19.7324 118.129 19.7324C118.512 19.7324 118.836 19.6543 119.102 19.498C119.367 19.3418 119.6 19.1328 119.799 18.8711L120.455 19.3926C120.318 19.5996 120.145 19.7969 119.934 19.9844C119.723 20.1719 119.463 20.3242 119.154 20.4414C118.85 20.5586 118.488 20.6172 118.07 20.6172ZM130.363 19.5801V20.5H125.846V19.5801H130.363ZM126.074 11.9688V20.5H124.943V11.9688H126.074ZM129.766 15.6367V16.5566H125.846V15.6367H129.766ZM130.305 11.9688V12.8945H125.846V11.9688H130.305ZM132.684 15.5137V20.5H131.6V14.1602H132.625L132.684 15.5137ZM132.426 17.0898L131.975 17.0723C131.979 16.6387 132.043 16.2383 132.168 15.8711C132.293 15.5 132.469 15.1777 132.695 14.9043C132.922 14.6309 133.191 14.4199 133.504 14.2715C133.82 14.1191 134.17 14.043 134.553 14.043C134.865 14.043 135.146 14.0859 135.396 14.1719C135.646 14.2539 135.859 14.3867 136.035 14.5703C136.215 14.7539 136.352 14.9922 136.445 15.2852C136.539 15.5742 136.586 15.9277 136.586 16.3457V20.5H135.496V16.334C135.496 16.002 135.447 15.7363 135.35 15.5371C135.252 15.334 135.109 15.1875 134.922 15.0977C134.734 15.0039 134.504 14.957 134.23 14.957C133.961 14.957 133.715 15.0137 133.492 15.127C133.273 15.2402 133.084 15.3965 132.924 15.5957C132.768 15.7949 132.645 16.0234 132.555 16.2812C132.469 16.5352 132.426 16.8047 132.426 17.0898ZM140.887 14.1602V14.9922H137.459V14.1602H140.887ZM138.619 12.6191H139.703V18.9297C139.703 19.1445 139.736 19.3066 139.803 19.416C139.869 19.5254 139.955 19.5977 140.061 19.6328C140.166 19.668 140.279 19.6855 140.4 19.6855C140.49 19.6855 140.584 19.6777 140.682 19.6621C140.783 19.6426 140.859 19.627 140.91 19.6152L140.916 20.5C140.83 20.5273 140.717 20.5527 140.576 20.5762C140.439 20.6035 140.273 20.6172 140.078 20.6172C139.812 20.6172 139.568 20.5645 139.346 20.459C139.123 20.3535 138.945 20.1777 138.812 19.9316C138.684 19.6816 138.619 19.3457 138.619 18.9238V12.6191ZM143.242 15.1562V20.5H142.158V14.1602H143.213L143.242 15.1562ZM145.223 14.125L145.217 15.1328C145.127 15.1133 145.041 15.1016 144.959 15.0977C144.881 15.0898 144.791 15.0859 144.689 15.0859C144.439 15.0859 144.219 15.125 144.027 15.2031C143.836 15.2812 143.674 15.3906 143.541 15.5312C143.408 15.6719 143.303 15.8398 143.225 16.0352C143.15 16.2266 143.102 16.4375 143.078 16.668L142.773 16.8438C142.773 16.4609 142.811 16.1016 142.885 15.7656C142.963 15.4297 143.082 15.1328 143.242 14.875C143.402 14.6133 143.605 14.4102 143.852 14.2656C144.102 14.1172 144.398 14.043 144.742 14.043C144.82 14.043 144.91 14.0527 145.012 14.0723C145.113 14.0879 145.184 14.1055 145.223 14.125ZM148.111 19.8438L149.875 14.1602H151.035L148.492 21.4785C148.434 21.6348 148.355 21.8027 148.258 21.9824C148.164 22.166 148.043 22.3398 147.895 22.5039C147.746 22.668 147.566 22.8008 147.355 22.9023C147.148 23.0078 146.9 23.0605 146.611 23.0605C146.525 23.0605 146.416 23.0488 146.283 23.0254C146.15 23.002 146.057 22.9824 146.002 22.9668L145.996 22.0879C146.027 22.0918 146.076 22.0957 146.143 22.0996C146.213 22.1074 146.262 22.1113 146.289 22.1113C146.535 22.1113 146.744 22.0781 146.916 22.0117C147.088 21.9492 147.232 21.8418 147.35 21.6895C147.471 21.541 147.574 21.3359 147.66 21.0742L148.111 19.8438ZM146.816 14.1602L148.463 19.082L148.744 20.2246L147.965 20.623L145.633 14.1602H146.816Z" fill="white"/>
<path d="M166 16L182 16M182 16L176 22M182 16L176 10" stroke="white" stroke-width="1.5" stroke-linecap="round" stroke-linejoin="round"/>
</svg>
